<svg xmlns="http://www.w3.org/2000/svg" xmlns:xlink="http://www.w3.org/1999/xlink" width="100" viewBox="0 0 75 74.999997" height="100" preserveAspectRatio="xMidYMid meet"><defs><filter x="0%" y="0%" width="100%" height="100%" id="6f0b32d04f"></filter><filter x="0%" y="0%" width="100%" height="100%" id="73509bca9b"></filter><clipPath id="c8c7be356e"><path d="M 1.125 1.273438 L 73.875 1.273438 L 73.875 74.023438 L 1.125 74.023438 Z M 1.125 1.273438 " clip-rule="nonzero"></path></clipPath><clipPath id="7cd390afef"><path d="M 37.5 1.273438 C 17.410156 1.273438 1.125 17.5625 1.125 37.648438 C 1.125 57.738281 17.410156 74.023438 37.5 74.023438 C 57.589844 74.023438 73.875 57.738281 73.875 37.648438 C 73.875 17.5625 57.589844 1.273438 37.5 1.273438 Z M 37.5 1.273438 " clip-rule="nonzero"></path></clipPath><clipPath id="fa6d0cb093"><path d="M 15 13 L 60 13 L 60 63.890625 L 15 63.890625 Z M 15 13 " clip-rule="nonzero"></path></clipPath><image x="0" y="0" width="427" id="62ccb12f4b" height="480" preserveAspectRatio="xMidYMid meet"></image><mask id="b3b2e64383"><g filter="url(#6f0b32d04f)"><g filter="url(#73509bca9b)" transform="matrix(0.107143, 0, 0, 0.10625, 14.693879, 12.891267)"><image x="0" y="0" width="427" height="480" preserveAspectRatio="xMidYMid meet"></image></g></g></mask><image x="0" y="0" width="427" id="5ddf0b0b16" height="480" preserveAspectRatio="xMidYMid meet"></image></defs><g clip-path="url(#c8c7be356e)"><g clip-path="url(#7cd390afef)"><path fill="#ff9a38" d="M 1.125 1.273438 L 73.875 1.273438 L 73.875 74.023438 L 1.125 74.023438 Z M 1.125 1.273438 " fill-opacity="1" fill-rule="nonzero"></path></g></g><g clip-path="url(#fa6d0cb093)"><g mask="url(#b3b2e64383)"><g transform="matrix(0.107143, 0, 0, 0.10625, 14.693879, 12.891267)"><image x="0" y="0" width="427" height="480" preserveAspectRatio="xMidYMid meet"></image></g></g></g></svg>