<svg xmlns="http://www.w3.org/2000/svg" xmlns:xlink="http://www.w3.org/1999/xlink" width="100" viewBox="0 0 75 74.999997" height="100" preserveAspectRatio="xMidYMid meet"><defs><filter x="0%" y="0%" width="100%" height="100%" id="9e901723ab"></filter><filter x="0%" y="0%" width="100%" height="100%" id="199c0f29bd"></filter><clipPath id="b539a88551"><path d="M 1.125 1.273438 L 73.875 1.273438 L 73.875 74.023438 L 1.125 74.023438 Z M 1.125 1.273438 " clip-rule="nonzero"></path></clipPath><clipPath id="bf65da680b"><path d="M 37.5 1.273438 C 17.410156 1.273438 1.125 17.5625 1.125 37.648438 C 1.125 57.738281 17.410156 74.023438 37.5 74.023438 C 57.589844 74.023438 73.875 57.738281 73.875 37.648438 C 73.875 17.5625 57.589844 1.273438 37.5 1.273438 Z M 37.5 1.273438 " clip-rule="nonzero"></path></clipPath><clipPath id="58f925407c"><path d="M 15 13 L 60 13 L 60 63.890625 L 15 63.890625 Z M 15 13 " clip-rule="nonzero"></path></clipPath><image x="0" y="0" width="427" id="16c9987658" height="480" preserveAspectRatio="xMidYMid meet"></image><mask id="3e1b6107e9"><g filter="url(#9e901723ab)"><g filter="url(#199c0f29bd)" transform="matrix(0.107143, 0, 0, 0.10625, 14.693879, 12.891267)"><image x="0" y="0" width="427" height="480" preserveAspectRatio="xMidYMid meet"></image></g></g></mask><image x="0" y="0" width="427" id="592170f474" height="480" preserveAspectRatio="xMidYMid meet"></image></defs><rect x="-7.5" width="90" fill="#ffffff" y="-7.5" height="89.999996" fill-opacity="1"></rect><rect x="-7.5" width="90" fill="#ffffff" y="-7.5" height="89.999996" fill-opacity="1"></rect><g clip-path="url(#b539a88551)"><g clip-path="url(#bf65da680b)"><path fill="#ff9a38" d="M 1.125 1.273438 L 73.875 1.273438 L 73.875 74.023438 L 1.125 74.023438 Z M 1.125 1.273438 " fill-opacity="1" fill-rule="nonzero"></path></g></g><g clip-path="url(#58f925407c)"><g mask="url(#3e1b6107e9)"><g transform="matrix(0.107143, 0, 0, 0.10625, 14.693879, 12.891267)"><image x="0" y="0" width="427" height="480" preserveAspectRatio="xMidYMid meet"></image></g></g></g></svg>