<svg xmlns="http://www.w3.org/2000/svg" xmlns:xlink="http://www.w3.org/1999/xlink" width="100" viewBox="0 0 75 74.999997" height="100" preserveAspectRatio="xMidYMid meet"><defs><filter x="0%" y="0%" width="100%" height="100%" id="1a9c55aa75"></filter><filter x="0%" y="0%" width="100%" height="100%" id="54e8d7d527"></filter><clipPath id="d4a1b7b033"><path d="M 1.125 1.273438 L 73.875 1.273438 L 73.875 74.023438 L 1.125 74.023438 Z M 1.125 1.273438 " clip-rule="nonzero"></path></clipPath><clipPath id="7eee9d420a"><path d="M 37.5 1.273438 C 17.410156 1.273438 1.125 17.5625 1.125 37.648438 C 1.125 57.738281 17.410156 74.023438 37.5 74.023438 C 57.589844 74.023438 73.875 57.738281 73.875 37.648438 C 73.875 17.5625 57.589844 1.273438 37.5 1.273438 Z M 37.5 1.273438 " clip-rule="nonzero"></path></clipPath><clipPath id="960ef5b709"><path d="M 12 11 L 64.84375 11 L 64.84375 60.921875 L 12 60.921875 Z M 12 11 " clip-rule="nonzero"></path></clipPath><image x="0" y="0" width="480" id="f9ee964fa7" height="453" preserveAspectRatio="xMidYMid meet"></image><mask id="c64ec16439"><g filter="url(#1a9c55aa75)"><g filter="url(#54e8d7d527)" transform="matrix(0.110937, 0, 0, 0.110927, 11.59476, 10.670643)"><image x="0" y="0" width="480" height="453" preserveAspectRatio="xMidYMid meet"></image></g></g></mask><image x="0" y="0" width="480" id="128240207d" height="453" preserveAspectRatio="xMidYMid meet"></image></defs><g clip-path="url(#d4a1b7b033)"><g clip-path="url(#7eee9d420a)"><path fill="#ff9a38" d="M 1.125 1.273438 L 73.875 1.273438 L 73.875 74.023438 L 1.125 74.023438 Z M 1.125 1.273438 " fill-opacity="1" fill-rule="nonzero"></path></g></g><g clip-path="url(#960ef5b709)"><g mask="url(#c64ec16439)"><g transform="matrix(0.110937, 0, 0, 0.110927, 11.59476, 10.670643)"><image x="0" y="0" width="480" height="453" preserveAspectRatio="xMidYMid meet"></image></g></g></g></svg>