<svg xmlns="http://www.w3.org/2000/svg" xmlns:xlink="http://www.w3.org/1999/xlink" width="100" viewBox="0 0 75 74.999997" height="100" preserveAspectRatio="xMidYMid meet"><defs><filter x="0%" y="0%" width="100%" height="100%" id="d4ea58e3e2"></filter><filter x="0%" y="0%" width="100%" height="100%" id="13d3e7cf70"></filter><clipPath id="b6a142a5a8"><path d="M 1.125 1.273438 L 73.875 1.273438 L 73.875 74.023438 L 1.125 74.023438 Z M 1.125 1.273438 " clip-rule="nonzero"></path></clipPath><clipPath id="8b49694464"><path d="M 37.5 1.273438 C 17.410156 1.273438 1.125 17.5625 1.125 37.648438 C 1.125 57.738281 17.410156 74.023438 37.5 74.023438 C 57.589844 74.023438 73.875 57.738281 73.875 37.648438 C 73.875 17.5625 57.589844 1.273438 37.5 1.273438 Z M 37.5 1.273438 " clip-rule="nonzero"></path></clipPath><image x="0" y="0" width="445" id="642fd6886e" height="480" preserveAspectRatio="xMidYMid meet"></image><mask id="3bc3b28a01"><g filter="url(#d4ea58e3e2)"><g filter="url(#13d3e7cf70)" transform="matrix(0.102809, 0, 0, 0.103125, 14.629746, 11.754051)"><image x="0" y="0" width="445" height="480" preserveAspectRatio="xMidYMid meet"></image></g></g></mask><image x="0" y="0" width="445" id="2064c7c864" height="480" preserveAspectRatio="xMidYMid meet"></image></defs><g clip-path="url(#b6a142a5a8)"><g clip-path="url(#8b49694464)"><path fill="#ff9a38" d="M 1.125 1.273438 L 73.875 1.273438 L 73.875 74.023438 L 1.125 74.023438 Z M 1.125 1.273438 " fill-opacity="1" fill-rule="nonzero"></path></g></g><g mask="url(#3bc3b28a01)"><g transform="matrix(0.102809, 0, 0, 0.103125, 14.629746, 11.754051)"><image x="0" y="0" width="445" height="480" preserveAspectRatio="xMidYMid meet"></image></g></g></svg>