<svg xmlns="http://www.w3.org/2000/svg" xmlns:xlink="http://www.w3.org/1999/xlink" width="100" viewBox="0 0 75 74.999997" height="100" preserveAspectRatio="xMidYMid meet"><defs><filter x="0%" y="0%" width="100%" height="100%" id="497514c434"></filter><filter x="0%" y="0%" width="100%" height="100%" id="ad73c860fb"></filter><clipPath id="5612cd1e35"><path d="M 1.125 1.273438 L 73.875 1.273438 L 73.875 74.023438 L 1.125 74.023438 Z M 1.125 1.273438 " clip-rule="nonzero"></path></clipPath><clipPath id="e8dd8f2ff0"><path d="M 37.5 1.273438 C 17.410156 1.273438 1.125 17.5625 1.125 37.648438 C 1.125 57.738281 17.410156 74.023438 37.5 74.023438 C 57.589844 74.023438 73.875 57.738281 73.875 37.648438 C 73.875 17.5625 57.589844 1.273438 37.5 1.273438 Z M 37.5 1.273438 " clip-rule="nonzero"></path></clipPath><image x="0" y="0" width="445" id="6e577733d6" height="480" preserveAspectRatio="xMidYMid meet"></image><mask id="f7e9893f48"><g filter="url(#497514c434)"><g filter="url(#ad73c860fb)" transform="matrix(0.102809, 0, 0, 0.103125, 14.629746, 11.754051)"><image x="0" y="0" width="445" height="480" preserveAspectRatio="xMidYMid meet"></image></g></g></mask><image x="0" y="0" width="445" id="d2db94c815" height="480" preserveAspectRatio="xMidYMid meet"></image></defs><rect x="-7.5" width="90" fill="#ffffff" y="-7.5" height="89.999996" fill-opacity="1"></rect><rect x="-7.5" width="90" fill="#ffffff" y="-7.5" height="89.999996" fill-opacity="1"></rect><g clip-path="url(#5612cd1e35)"><g clip-path="url(#e8dd8f2ff0)"><path fill="#ff9a38" d="M 1.125 1.273438 L 73.875 1.273438 L 73.875 74.023438 L 1.125 74.023438 Z M 1.125 1.273438 " fill-opacity="1" fill-rule="nonzero"></path></g></g><g mask="url(#f7e9893f48)"><g transform="matrix(0.102809, 0, 0, 0.103125, 14.629746, 11.754051)"><image x="0" y="0" width="445" height="480" preserveAspectRatio="xMidYMid meet"></image></g></g></svg>