<svg xmlns="http://www.w3.org/2000/svg" xmlns:xlink="http://www.w3.org/1999/xlink" id="Capa_1" x="0px" y="0px" viewBox="0 0 62.044 62.044" style="enable-background:new 0 0 62.044 62.044;" xml:space="preserve"><g>	<g id="group-21svg">		<path id="path-1_12_" style="fill:#81BDA4;" d="M15.797,54.039c-2.617,0-6.275-2.762-6.275-5.381V13.029   c0-3.33,4.215-5.023,7.542-5.023h34.618c3.829,0,5.84,2.1,5.84,5.932v34.72c0,2.63-1.036,5.381-3.664,5.381H15.797z"></path>		<path id="path-2_12_" style="fill:#FF917B;" d="M48.078,62.044h1.875c1.932,0,2.569-1.865,2.569-3.8v-4.205h-7v4.205   C45.522,60.179,46.144,62.044,48.078,62.044z"></path>		<path id="path-3_12_" style="fill:#FF917B;" d="M16.078,62.044h1.875c1.924,0,2.569-1.874,2.569-3.8v-4.205h-7v4.205   C13.522,60.179,14.144,62.044,16.078,62.044z"></path>		<path id="path-4_12_" style="fill:#FF917B;" d="M48.828,30.022H36.522V17.091l12.71,1.009c1.114,0,2.29,0.903,2.29,2.018v5.603   C51.522,27.922,51.028,30.022,48.828,30.022z"></path>		<path id="path-5_12_" style="fill:#FF917B;" d="M29.522,30.022h-9.694c-2.201,0-5.306-2.1-5.306-4.301v-5.603   c0-1.115,0.672-2.018,1.785-2.018l13.215-1.009V30.022z"></path>		<path id="path-6_11_" style="fill:#EDC951;" d="M23.033,41.566c0,1.945-1.575,3.521-3.519,3.521c-1.943,0-3.518-1.576-3.518-3.521   c0-1.944,1.575-3.521,3.518-3.521C21.458,38.045,23.033,39.622,23.033,41.566z"></path>		<path id="path-7_11_" style="fill:#EDC951;" d="M53.958,41.566c0,1.945-1.577,3.521-3.52,3.521s-3.519-1.576-3.519-3.521   c0-1.944,1.576-3.521,3.519-3.521S53.958,39.622,53.958,41.566z"></path>		<path id="path-8_10_" style="fill:#EDC951;" d="M40.522,8.006h-15V5.004c0-1.105,0.895-2.002,2-2.002h11c1.104,0,2,0.897,2,2.002   V8.006z"></path>		<path id="path-9_8_" d="M50.858,54.039H12.797c-3.364,0-7.275-2.788-7.275-6.381v-35.63c0-4.202,4.417-7.024,8.542-7.024h34.618   c4.616,0,7.84,3.262,7.84,7.933v34.721C56.522,51.355,54.14,54.039,50.858,54.039z M14.064,8.006   c-2.621,0-5.542,1.652-5.542,4.022v35.63c0,1.708,2.448,3.378,4.275,3.378h38.061c1.84,0,2.664-1.697,2.664-3.378V12.937   c0-3.041-1.855-4.931-4.84-4.931H14.064z"></path>		<path id="path-10_8_" d="M38.522,45.032h-15c-0.828,0-1.5-0.672-1.5-1.501c0-0.829,0.672-1.501,1.5-1.501h15   c0.828,0,1.5,0.672,1.5,1.501C40.022,44.36,39.35,45.032,38.522,45.032z"></path>		<path id="path-11_8_" d="M38.522,41.029h-15c-0.828,0-1.5-0.672-1.5-1.501c0-0.829,0.672-1.501,1.5-1.501h15   c0.828,0,1.5,0.672,1.5,1.501C40.022,40.357,39.35,41.029,38.522,41.029z"></path>		<path id="path-12_8_" d="M38.522,37.026h-15c-0.828,0-1.5-0.671-1.5-1.501c0-0.829,0.672-1.501,1.5-1.501h15   c0.828,0,1.5,0.672,1.5,1.501C40.022,36.355,39.35,37.026,38.522,37.026z"></path>		<path id="path-13_6_" d="M16.514,45.588c-2.767,0-5.018-2.253-5.018-5.022s2.251-5.022,5.018-5.022   c2.768,0,5.019,2.253,5.019,5.022S19.282,45.588,16.514,45.588z M16.514,38.546c-1.113,0-2.018,0.906-2.018,2.02   c0,1.114,0.905,2.02,2.018,2.02s2.019-0.906,2.019-2.02C18.533,39.452,17.627,38.546,16.514,38.546z"></path>		<path id="path-14_5_" d="M47.438,45.588c-2.768,0-5.019-2.253-5.019-5.022s2.251-5.022,5.019-5.022   c2.768,0,5.019,2.253,5.019,5.022S50.206,45.588,47.438,45.588z M47.438,38.546c-1.113,0-2.019,0.906-2.019,2.02   c0,1.114,0.906,2.02,2.019,2.02s2.019-0.906,2.019-2.02C49.457,39.452,48.551,38.546,47.438,38.546z"></path>		<path id="path-15_5_" d="M47.048,62.044h-0.906c-2.721,0-4.62-1.974-4.62-4.801v-4.705c0-0.83,0.672-1.502,1.5-1.502h7   c0.828,0,1.5,0.672,1.5,1.502v4.705C51.522,60.115,49.724,62.044,47.048,62.044z M44.522,54.039v3.204   c0,0.672,0.211,1.799,1.62,1.799h0.906c0.365,0,1.474,0,1.474-1.799v-3.204H44.522z"></path>		<path id="path-16_3_" d="M15.048,62.044h-0.906c-2.721,0-4.62-1.974-4.62-4.801v-4.705c0-0.83,0.672-1.502,1.5-1.502h7   c0.828,0,1.5,0.672,1.5,1.502v4.705C19.522,60.115,17.724,62.044,15.048,62.044z M12.522,54.039v3.204   c0,0.672,0.211,1.799,1.62,1.799h0.906c0.365,0,1.474,0,1.474-1.799v-3.204H12.522z"></path>		<path id="path-17_2_" d="M45.828,30.022H34.022c-0.828,0-1.5-0.672-1.5-1.502V16.09c0-0.418,0.175-0.818,0.482-1.103   c0.308-0.283,0.722-0.427,1.136-0.393l12.659,1.005c1.991,0.036,3.723,1.665,3.723,3.518v5.603   C50.522,27.94,48.679,30.022,45.828,30.022z M35.522,27.019h10.306c0.506,0,1.694,0,1.694-2.299v-5.603   c0-0.162-0.397-0.517-0.79-0.517c-0.04,0-0.079-0.001-0.118-0.005l-11.092-0.88V27.019z"></path>		<path id="path-18_1_" d="M27.022,30.022H16.828c-2.983,0-6.306-2.178-6.306-5.302v-5.603c0-1.983,1.38-3.484,3.221-3.518   l13.165-1.005c0.411-0.033,0.827,0.111,1.133,0.395c0.307,0.284,0.481,0.684,0.481,1.101v12.43   C28.522,29.35,27.85,30.022,27.022,30.022z M25.522,17.71l-11.6,0.886c-0.038,0.003-0.076,0.004-0.114,0.004   c-0.249,0-0.286,0.324-0.286,0.517v5.603c0,1.217,1.849,2.299,3.306,2.299h8.694V17.71z"></path>		<path id="path-19_1_" d="M38.022,8.006h-15c-0.828,0-1.5-0.672-1.5-1.501V3.503c0-1.931,1.57-3.503,3.5-3.503h11   c1.93,0,3.5,1.572,3.5,3.503v3.002C39.522,7.334,38.85,8.006,38.022,8.006z M24.522,5.004h12V3.503c0-0.276-0.225-0.501-0.5-0.501   h-11c-0.271,0-0.5,0.23-0.5,0.501V5.004z"></path>		<path id="path-20_1_" d="M55.022,36.526c-0.828,0-1.5-0.672-1.5-1.501v-14.51c0-0.829,0.672-1.501,1.5-1.501h3.806   c1.788,0,2.694,1.246,2.694,3.705v8.303c0,0.829-0.672,1.501-1.5,1.501s-1.5-0.672-1.5-1.501v-8.303   c0-0.331-0.012-0.554-0.028-0.703h-1.972v13.009C56.522,35.854,55.85,36.526,55.022,36.526z"></path>		<path id="path-21_1_" d="M7.022,36.526c-0.828,0-1.5-0.672-1.5-1.501V22.016H4.828c-0.414,0-1.208,0.518-1.32,0.802l0.014,8.204   c0,0.829-0.672,1.501-1.5,1.501s-1.5-0.672-1.5-1.501v-8.303c0-2.149,2.572-3.705,4.306-3.705h2.194c0.828,0,1.5,0.672,1.5,1.501   v14.51C8.522,35.854,7.85,36.526,7.022,36.526z"></path>	</g></g><g></g><g></g><g></g><g></g><g></g><g></g><g></g><g></g><g></g><g></g><g></g><g></g><g></g><g></g><g></g></svg>