<svg xmlns="http://www.w3.org/2000/svg" xmlns:xlink="http://www.w3.org/1999/xlink" id="Capa_1" x="0px" y="0px" viewBox="0 0 67 67" style="enable-background:new 0 0 67 67;" xml:space="preserve"><g>	<g id="group-12svg">		<path id="path-1_3_" style="fill:#EDC951;" d="M14,19.491h45v32.022H14V19.491z"></path>		<path id="path-2_3_" style="fill:#53ECF4;" d="M19,47.51V24.494h15V47.51H19z"></path>		<path id="path-3_3_" style="fill:#53ECF4;" d="M39,47.51V24.494h15V47.51H39z"></path>		<path id="path-4_3_" style="fill:#FF917B;" d="M67,12.486H6V5.481h61V12.486z"></path>		<path id="path-5_3_" style="fill:#FF917B;" d="M6,58.518h61v7.005H6V58.518z"></path>		<path id="path-6_2_" style="fill:#EDC951;" d="M63,19.491H10v-7.005h53V19.491z"></path>		<path id="path-7_2_" style="fill:#EDC951;" d="M10,51.513h53v7.005H10V51.513z"></path>		<path id="path-8_2_" d="M62.5,11.485h-61c-0.829,0-1.5-0.672-1.5-1.501V2.979c0-0.828,0.671-1.501,1.5-1.501h61   c0.829,0,1.5,0.673,1.5,1.501v7.005C64,10.813,63.329,11.485,62.5,11.485z M3,8.483h58V4.48H3V8.483z"></path>		<path id="path-9_2_" d="M62.5,64.521h-61c-0.829,0-1.5-0.672-1.5-1.501v-7.005c0-0.829,0.671-1.501,1.5-1.501h61   c0.829,0,1.5,0.672,1.5,1.501v7.005C64,63.85,63.329,64.521,62.5,64.521z M3,61.52h58v-4.003H3V61.52z"></path>		<path id="path-10_2_" d="M58.5,18.49h-53c-0.829,0-1.5-0.672-1.5-1.501V9.984c0-0.828,0.671-1.501,1.5-1.501h53   c0.829,0,1.5,0.673,1.5,1.501v7.005C60,17.818,59.329,18.49,58.5,18.49z M7,15.488h50v-4.003H7V15.488z"></path>		<path id="path-11_1_" d="M58.5,57.517h-53c-0.829,0-1.5-0.672-1.5-1.501v-7.005c0-0.829,0.671-1.501,1.5-1.501h53   c0.829,0,1.5,0.672,1.5,1.501v7.005C60,56.845,59.329,57.517,58.5,57.517z M7,54.515h50v-4.003H7V54.515z"></path>		<path id="path-12_1_" d="M54.5,50.512h-45c-0.829,0-1.5-0.672-1.5-1.501V16.989c0-0.829,0.671-1.501,1.5-1.501h45   c0.829,0,1.5,0.672,1.5,1.501v32.022C56,49.84,55.329,50.512,54.5,50.512z M11,47.51h42V18.49H11V47.51z"></path>		<path id="path-13" d="M29.5,46.509h-15c-0.829,0-1.5-0.672-1.5-1.501V21.993c0-0.829,0.671-1.502,1.5-1.502h15   c0.829,0,1.5,0.673,1.5,1.502v23.015C31,45.837,30.329,46.509,29.5,46.509z M16,43.507h12V23.494H16V43.507z"></path>		<path id="path-14" d="M49.5,46.509h-15c-0.829,0-1.5-0.672-1.5-1.501V21.993c0-0.829,0.671-1.502,1.5-1.502h15   c0.829,0,1.5,0.673,1.5,1.502v23.015C51,45.837,50.329,46.509,49.5,46.509z M36,43.507h12V23.494H36V43.507z"></path>	</g></g><g></g><g></g><g></g><g></g><g></g><g></g><g></g><g></g><g></g><g></g><g></g><g></g><g></g><g></g><g></g></svg>